<?xml version="1.0" encoding="utf-8"?>
<!-- Generator: Adobe Illustrator 16.0.4, SVG Export Plug-In . SVG Version: 6.00 Build 0)  -->
<!DOCTYPE svg PUBLIC "-//W3C//DTD SVG 1.1//EN" "http://www.w3.org/Graphics/SVG/1.1/DTD/svg11.dtd">
<svg version="1.1" id="Layer_1" xmlns="http://www.w3.org/2000/svg" xmlns:xlink="http://www.w3.org/1999/xlink" x="0px" y="0px"
	 width="128.363px" height="37.624px" viewBox="289.363 84.815 128.363 37.624"
	 enable-background="new 289.363 84.815 128.363 37.624" xml:space="preserve">
<path fill="#FFFFFF" d="M301,93.153c0.417-0.671,0.94-1.255,1.572-1.755c0.631-0.497,1.34-0.885,2.126-1.161
	c0.786-0.274,1.611-0.412,2.476-0.412c1.14,0,2.204,0.206,3.193,0.619c0.987,0.413,2.176,1.031,3.564,1.857l2.515-4.077
	c-2.751-1.822-5.7-2.734-8.846-2.734c-1.521,0-2.979,0.258-4.374,0.774c-1.396,0.516-2.664,1.221-3.807,2.115
	c-1.144,0.896-2.096,1.953-2.856,3.174c-0.762,1.222-1.251,2.521-1.466,3.896c-0.237,1.515-0.188,2.787,0.151,3.819
	c0.339,1.031,0.858,1.9,1.559,2.605c0.699,0.706,1.531,1.282,2.496,1.729c0.964,0.448,1.96,0.86,2.986,1.239
	s2.036,0.748,3.031,1.109c0.994,0.361,1.856,0.792,2.588,1.29c0.73,0.499,1.288,1.119,1.67,1.858s0.486,1.66,0.312,2.76
	c-0.317,1.996-1.231,3.519-2.741,4.568c-1.509,1.049-3.331,1.573-5.465,1.573c-1.274,0-2.503-0.344-3.685-1.031
	c-1.184-0.688-2.469-1.549-3.856-2.581l-2.479,4.283c1.67,1.204,3.308,2.116,4.914,2.735c1.605,0.618,3.268,0.929,4.989,0.929
	c1.616,0,3.176-0.232,4.678-0.697c1.501-0.464,2.858-1.152,4.071-2.064c1.212-0.911,2.236-2.047,3.072-3.405
	c0.837-1.359,1.398-2.933,1.685-4.722c0.323-2.03,0.159-3.646-0.493-4.852c-0.653-1.204-1.566-2.175-2.742-2.916
	c-1.176-0.739-2.487-1.333-3.935-1.78c-1.447-0.446-2.776-0.929-3.989-1.444c-1.213-0.517-2.191-1.152-2.934-1.91
	c-0.744-0.756-1.008-1.822-0.791-3.199C300.313,94.555,300.584,93.824,301,93.153z"/>
<path fill="#FFFFFF" d="M327.515,89.464l-5.026,2.58l-0.909,5.677h-4.297l-0.61,3.818h4.295l-2.399,14.98
	c-0.165,1.03-0.124,1.904,0.122,2.626c0.245,0.721,0.633,1.312,1.16,1.775c0.528,0.464,1.144,0.806,1.849,1.029
	c0.704,0.223,1.435,0.335,2.191,0.335c0.791,0,1.814-0.16,3.07-0.479c1.255-0.319,2.352-0.713,3.288-1.184l-1.241-3.499
	c-0.818,0.379-1.509,0.654-2.07,0.826s-1.17,0.257-1.823,0.257c-0.551,0-0.968-0.076-1.253-0.232
	c-0.285-0.155-0.469-0.405-0.551-0.751c-0.083-0.345-0.088-0.793-0.017-1.346c0.071-0.552,0.172-1.225,0.299-2.019l1.981-12.32
	h6.313l0.616-3.818h-6.315L327.515,89.464z"/>
<path fill="#FFFFFF" d="M349.973,116.513c-0.916,0.582-1.835,0.984-2.759,1.206c-0.924,0.223-2.12,0.334-3.587,0.334
	c-0.718,0-1.406-0.119-2.067-0.358c-0.66-0.24-1.234-0.592-1.723-1.054s-0.854-1.052-1.095-1.771
	c-0.241-0.718-0.284-1.557-0.128-2.516l2.38-14.634h-4.763l-2.388,14.729c-0.3,1.854-0.207,3.407,0.282,4.661
	c0.489,1.253,1.188,2.274,2.097,3.064c0.909,0.789,1.95,1.354,3.122,1.699c1.171,0.343,2.293,0.515,3.364,0.515
	c1.313,0,2.693-0.139,4.139-0.412c1.445-0.275,2.634-0.618,3.567-1.03l3.325,1.486l4.081-24.712h-4.764L349.973,116.513z"/>
<polygon fill="#FFFFFF" points="386.539,105.197 383.743,121.769 388.388,121.769 391.408,103.935 "/>
<polygon fill="#FFFFFF" points="417.726,97.72 397.586,97.72 395.651,101.798 409.623,101.798 393.074,119.408 392.105,121.769 
	413.061,121.769 414.952,117.692 400.181,117.692 416.647,100.076 "/>
<path fill="none" d="M372.948,101.436c-1.148,0-2.234,0.206-3.259,0.618c-1.023,0.41-1.953,0.977-2.785,1.696
	c-0.833,0.722-1.522,1.578-2.069,2.573s-0.92,2.093-1.119,3.292c-0.205,1.236-0.194,2.376,0.031,3.422
	c0.226,1.047,0.639,1.955,1.239,2.727s1.367,1.381,2.299,1.827c0.933,0.445,1.988,0.668,3.168,0.668
	c1.041,0,1.969-0.153,2.784-0.462c0.814-0.309,1.695-0.703,2.644-1.185l2.268-13.53c-0.894-0.686-1.739-1.132-2.54-1.338
	C374.808,101.539,373.922,101.436,372.948,101.436z"/>
<path fill="#FFFFFF" d="M378.84,98.34c-0.72-0.446-1.512-0.766-2.378-0.955c-0.866-0.188-1.868-0.283-3.007-0.283
	c-1.796,0-3.504,0.31-5.125,0.929c-1.622,0.619-3.078,1.488-4.367,2.606c-1.29,1.118-2.372,2.451-3.249,3.999
	s-1.466,3.234-1.767,5.058c-0.296,1.789-0.251,3.449,0.137,4.979c0.387,1.531,1.048,2.864,1.983,4
	c0.937,1.135,2.111,2.03,3.523,2.684s2.999,0.98,4.762,0.98c0.622,0,1.209-0.044,1.759-0.129c0.55-0.087,1.095-0.189,1.634-0.31
	c0.538-0.121,1.089-0.258,1.65-0.413s1.147-0.3,1.759-0.438l3.396,1.394l5.943-35.342l-5.003,1.387L378.84,98.34z M375.881,116.613
	c-0.948,0.481-1.829,0.876-2.644,1.185c-0.815,0.309-1.743,0.462-2.784,0.462c-1.18,0-2.235-0.223-3.168-0.668
	c-0.932-0.446-1.698-1.056-2.299-1.827s-1.014-1.68-1.239-2.727c-0.226-1.046-0.236-2.186-0.031-3.422
	c0.199-1.199,0.572-2.297,1.119-3.292s1.237-1.852,2.069-2.573c0.833-0.72,1.762-1.286,2.785-1.696
	c1.024-0.412,2.11-0.618,3.259-0.618c0.974,0,1.86,0.103,2.66,0.309s1.646,0.652,2.54,1.338L375.881,116.613z"/>
<linearGradient id="SVGID_1_" gradientUnits="userSpaceOnUse" x1="490.8064" y1="-160.6208" x2="490.8064" y2="-153.7839" gradientTransform="matrix(1 0 0 -1 -101 -57.561)">
	<stop  offset="0" style="stop-color:#2890BF"/>
	<stop  offset="1" style="stop-color:#52A8CD"/>
</linearGradient>
<polygon fill="url(#SVGID_1_)" points="392.713,96.223 387.73,98.134 386.899,103.06 391.779,101.745 "/>
</svg>
